<?xml version="1.0" encoding="UTF-8"?>
<!DOCTYPE svg PUBLIC "-//W3C//DTD SVG 1.1//EN" "http://www.w3.org/Graphics/SVG/1.1/DTD/svg11.dtd">
<svg xmlns="http://www.w3.org/2000/svg" version="1.1" width="114px" height="112px" style="shape-rendering:geometricPrecision; text-rendering:geometricPrecision; image-rendering:optimizeQuality; fill-rule:evenodd; clip-rule:evenodd" xmlns:xlink="http://www.w3.org/1999/xlink">
<g><path style="opacity:1" fill="#11110a" d="M 2.5,-0.5 C 37.5,-0.5 72.5,-0.5 107.5,-0.5C 107.539,0.583168 107.873,1.58317 108.5,2.5C 107.102,4.13034 106.102,5.96367 105.5,8C 100.551,7.5084 95.5506,7.5084 90.5,8C 93.488,8.21723 96.1547,9.21723 98.5,11C 97.1667,11.6667 97.1667,12.3333 98.5,13C 95.0569,13.2213 94.7236,14.2213 97.5,16C 96.1667,16.6667 94.8333,17.3333 93.5,18C 94.1079,18.8699 94.9412,19.3699 96,19.5C 100.268,18.3249 100.435,19.1583 96.5,22C 99.2993,22.4391 100.299,23.7724 99.5,26C 101.679,26.4419 102.345,27.4419 101.5,29C 102.624,29.2492 103.624,29.7492 104.5,30.5C 104.167,31.8333 103.833,33.1667 103.5,34.5C 104.391,35.5896 105.391,35.5896 106.5,34.5C 107.59,35.3914 107.59,36.3914 106.5,37.5C 107.729,38.2811 109.062,38.7811 110.5,39C 110.296,41.6213 110.296,44.4547 110.5,47.5C 107.203,47.6713 106.869,47.0046 109.5,45.5C 108.375,41.9469 106.542,41.6135 104,44.5C 102.026,49.9445 100.692,55.6112 100,61.5C 99.6174,62.056 99.1174,62.3893 98.5,62.5C 98.8214,56.9738 98.4881,51.6405 97.5,46.5C 93.1662,28.6728 81.8328,18.1728 63.5,15C 57.4422,14.2608 51.4422,14.5941 45.5,16C 43.2418,16.876 41.2418,18.0427 39.5,19.5C 34.5479,20.9286 30.8812,23.9286 28.5,28.5C 27.1667,29.1667 26.1667,30.1667 25.5,31.5C 21.5032,33.4722 19.5032,36.8055 19.5,41.5C 19.1667,42.8333 18.8333,44.1667 18.5,45.5C 17.8333,45.8333 17.1667,46.1667 16.5,46.5C 17.336,43.4079 18.0027,40.2413 18.5,37C 18.1667,35.1667 17.8333,33.3333 17.5,31.5C 17.0785,34.0677 15.5785,36.401 13,38.5C 12.5,38 12,37.5 11.5,37C 12.614,35.4301 13.9474,34.0968 15.5,33C 13.4259,33.2273 11.4259,33.0606 9.5,32.5C 8.28882,31.7261 8.28882,30.8928 9.5,30C 8.97473,29.3076 8.30806,28.8076 7.5,28.5C 6.22483,38.0495 6.55816,47.5495 8.5,57C 8.16667,58.8333 7.83333,60.6667 7.5,62.5C 5.67058,64.1558 4.33725,66.1558 3.5,68.5C 2.50028,45.5097 2.16695,22.5097 2.5,-0.5 Z"/></g>
<g><path style="opacity:1" fill="#11100e" d="M 107.5,-0.5 C 109.5,-0.5 111.5,-0.5 113.5,-0.5C 113.5,18.1667 113.5,36.8333 113.5,55.5C 112.25,55.4226 111.417,54.756 111,53.5C 110.552,55.2244 109.718,55.891 108.5,55.5C 110.226,57.2279 111.559,59.2279 112.5,61.5C 110.729,61.2799 109.062,62.1133 107.5,64C 108.337,65.0113 108.67,66.1779 108.5,67.5C 107.448,67.3505 106.448,67.5172 105.5,68C 106.888,68.8893 106.722,69.3893 105,69.5C 104.617,67.963 103.784,66.6297 102.5,65.5C 101.52,66.9814 100.353,68.3147 99,69.5C 98.51,68.2068 98.3433,66.8734 98.5,65.5C 98.5,64.5 98.5,63.5 98.5,62.5C 99.1174,62.3893 99.6174,62.056 100,61.5C 100.692,55.6112 102.026,49.9445 104,44.5C 106.542,41.6135 108.375,41.9469 109.5,45.5C 106.869,47.0046 107.203,47.6713 110.5,47.5C 110.296,44.4547 110.296,41.6213 110.5,39C 109.062,38.7811 107.729,38.2811 106.5,37.5C 107.59,36.3914 107.59,35.3914 106.5,34.5C 105.391,35.5896 104.391,35.5896 103.5,34.5C 103.833,33.1667 104.167,31.8333 104.5,30.5C 103.624,29.7492 102.624,29.2492 101.5,29C 102.345,27.4419 101.679,26.4419 99.5,26C 100.299,23.7724 99.2993,22.4391 96.5,22C 100.435,19.1583 100.268,18.3249 96,19.5C 94.9412,19.3699 94.1079,18.8699 93.5,18C 94.8333,17.3333 96.1667,16.6667 97.5,16C 94.7236,14.2213 95.0569,13.2213 98.5,13C 97.1667,12.3333 97.1667,11.6667 98.5,11C 96.1547,9.21723 93.488,8.21723 90.5,8C 95.5506,7.5084 100.551,7.5084 105.5,8C 106.102,5.96367 107.102,4.13034 108.5,2.5C 107.873,1.58317 107.539,0.583168 107.5,-0.5 Z"/></g>
<g><path style="opacity:1" fill="#eaa32b" d="M 39.5,19.5 C 36.6699,23.6767 33.0033,26.6767 28.5,28.5C 30.8812,23.9286 34.5479,20.9286 39.5,19.5 Z"/></g>
<g><path style="opacity:1" fill="#857907" d="M 44.5,22.5 C 43.4863,23.6737 42.153,24.3404 40.5,24.5C 41.287,22.8958 42.6203,22.2291 44.5,22.5 Z"/></g>
<g><path style="opacity:1" fill="#ac7c3a" d="M 47.5,21.5 C 49.8333,20.1667 52.1667,20.1667 54.5,21.5C 54.5,22.1667 54.5,22.8333 54.5,23.5C 54.5,24.1667 54.1667,24.5 53.5,24.5C 53.5,23.5 53.5,22.5 53.5,21.5C 51.5,21.5 49.5,21.5 47.5,21.5 Z"/></g>
<g><path style="opacity:1" fill="#f2c15d" d="M 55.5,34.5 C 55.5,32.8333 55.5,31.1667 55.5,29.5C 53.302,29.1201 51.6354,29.7868 50.5,31.5C 49.1667,31.5 47.8333,31.5 46.5,31.5C 46.6107,30.8826 46.944,30.3826 47.5,30C 46.1667,29.3333 44.8333,29.3333 43.5,30C 40.3537,31.6572 37.3537,33.4906 34.5,35.5C 36.2941,33.2034 38.2941,31.0367 40.5,29C 44.7568,27.3503 49.0901,25.8503 53.5,24.5C 54.1667,24.5 54.5,24.1667 54.5,23.5C 55.5832,23.4606 56.5832,23.1272 57.5,22.5C 57.8333,23.5 58.1667,24.5 58.5,25.5C 57.3701,28.522 56.3701,31.522 55.5,34.5 Z"/></g>
<g><path style="opacity:1" fill="#4b1d26" d="M 55.5,34.5 C 53.4352,34.5172 51.4352,34.8505 49.5,35.5C 49.0618,35.5654 48.7284,35.3988 48.5,35C 51.1667,34.3333 51.1667,33.6667 48.5,33C 49.4158,32.7216 50.0825,32.2216 50.5,31.5C 51.6354,29.7868 53.302,29.1201 55.5,29.5C 55.5,31.1667 55.5,32.8333 55.5,34.5 Z"/></g>
<g><path style="opacity:1" fill="#1d1f07" d="M 47.5,21.5 C 49.5,21.5 51.5,21.5 53.5,21.5C 53.5,22.5 53.5,23.5 53.5,24.5C 49.0901,25.8503 44.7568,27.3503 40.5,29C 38.2941,31.0367 36.2941,33.2034 34.5,35.5C 32.2774,38.1443 30.6107,41.1443 29.5,44.5C 28.5195,46.396 27.5195,48.396 26.5,50.5C 25.675,51.3857 24.675,51.719 23.5,51.5C 23.5,50.1667 23.5,48.8333 23.5,47.5C 25.6971,37.2984 31.3638,29.6317 40.5,24.5C 42.153,24.3404 43.4863,23.6737 44.5,22.5C 45.391,21.8902 46.391,21.5569 47.5,21.5 Z"/></g>
<g><path style="opacity:1" fill="#fcd339" d="M 97.5,46.5 C 97.666,51.8437 97.4994,57.1771 97,62.5C 96.4115,60.1367 94.9115,59.1367 92.5,59.5C 90.0274,59.0882 88.6941,60.0882 88.5,62.5C 87.2502,62.4226 86.4169,61.756 86,60.5C 85.2917,61.3805 84.4584,62.0472 83.5,62.5C 83.5,60.8333 83.5,59.1667 83.5,57.5C 81.4862,57.3915 79.8195,58.0582 78.5,59.5C 78.5983,56.7524 77.5983,56.0857 75.5,57.5C 75.7678,55.901 75.4345,54.5676 74.5,53.5C 73.0032,46.6711 69.0032,42.0044 62.5,39.5C 60.3926,38.5318 58.0593,38.1984 55.5,38.5C 55.5,37.1667 55.5,35.8333 55.5,34.5C 56.3701,31.522 57.3701,28.522 58.5,25.5C 58.1667,24.5 57.8333,23.5 57.5,22.5C 56.5832,23.1272 55.5832,23.4606 54.5,23.5C 54.5,22.8333 54.5,22.1667 54.5,21.5C 55.6487,19.0609 54.6487,17.7275 51.5,17.5C 47.4812,18.1682 43.4812,18.8349 39.5,19.5C 41.2418,18.0427 43.2418,16.876 45.5,16C 51.4422,14.5941 57.4422,14.2608 63.5,15C 81.8328,18.1728 93.1662,28.6728 97.5,46.5 Z"/></g>
<g><path style="opacity:1" fill="#551b05" d="M 25.5,31.5 C 23.0353,34.614 21.0353,37.9473 19.5,41.5C 19.5032,36.8055 21.5032,33.4722 25.5,31.5 Z"/></g>
<g><path style="opacity:1" fill="#f2e359" d="M 46.5,31.5 C 39.7069,35.4216 35.0403,41.0883 32.5,48.5C 31.8423,49.3984 31.1757,50.3984 30.5,51.5C 29.5258,49.2573 29.1924,46.924 29.5,44.5C 30.6107,41.1443 32.2774,38.1443 34.5,35.5C 37.3537,33.4906 40.3537,31.6572 43.5,30C 44.8333,29.3333 46.1667,29.3333 47.5,30C 46.944,30.3826 46.6107,30.8826 46.5,31.5 Z"/></g>
<g><path style="opacity:1" fill="#f3d065" d="M 55.5,34.5 C 55.5,35.8333 55.5,37.1667 55.5,38.5C 58.0593,38.1984 60.3926,38.5318 62.5,39.5C 55.8336,38.2635 50.167,39.9302 45.5,44.5C 45.719,43.325 45.3857,42.325 44.5,41.5C 42.8152,42.9527 41.1486,44.286 39.5,45.5C 41.861,41.139 45.1943,37.8057 49.5,35.5C 51.4352,34.8505 53.4352,34.5172 55.5,34.5 Z"/></g>
<g><path style="opacity:1" fill="#251c06" d="M 46.5,31.5 C 47.8333,31.5 49.1667,31.5 50.5,31.5C 50.0825,32.2216 49.4158,32.7216 48.5,33C 51.1667,33.6667 51.1667,34.3333 48.5,35C 48.7284,35.3988 49.0618,35.5654 49.5,35.5C 45.1943,37.8057 41.861,41.139 39.5,45.5C 38.1302,47.2504 37.1302,49.2504 36.5,51.5C 35.5326,52.8062 34.1993,53.4729 32.5,53.5C 32.5,51.8333 32.5,50.1667 32.5,48.5C 35.0403,41.0883 39.7069,35.4216 46.5,31.5 Z"/></g>
<g><path style="opacity:1" fill="#271204" d="M 62.5,39.5 C 69.0032,42.0044 73.0032,46.6711 74.5,53.5C 74.6923,63.3051 70.0256,69.3051 60.5,71.5C 54.1986,72.509 49.1986,70.509 45.5,65.5C 48.5484,66.7935 51.7151,67.7935 55,68.5C 56.0698,68.472 56.9032,68.1386 57.5,67.5C 60.716,67.6545 63.3826,66.6545 65.5,64.5C 71.6765,59.1283 72.0099,53.4617 66.5,47.5C 58.922,41.4856 52.5887,42.4856 47.5,50.5C 46.6618,50.8417 46.3284,51.5084 46.5,52.5C 44.6044,55.46 43.6044,58.7934 43.5,62.5C 41.2864,58.4215 40.9531,54.0882 42.5,49.5C 43.7515,47.9991 44.7515,46.3325 45.5,44.5C 50.167,39.9302 55.8336,38.2635 62.5,39.5 Z"/></g>
<g><path style="opacity:1" fill="#f7de66" d="M 66.5,47.5 C 66.2642,50.9139 65.5975,54.2473 64.5,57.5C 63.5713,56.3112 63.238,54.9778 63.5,53.5C 62.5,53.5 61.5,53.5 60.5,53.5C 58.7056,52.7671 57.0389,51.7671 55.5,50.5C 54.4168,50.4606 53.4168,50.1272 52.5,49.5C 51.1667,50.5 49.8333,51.5 48.5,52.5C 47.7025,52.0431 47.3691,51.3764 47.5,50.5C 52.5887,42.4856 58.922,41.4856 66.5,47.5 Z"/></g>
<g><path style="opacity:1" fill="#fadd31" d="M 54.5,21.5 C 52.1667,20.1667 49.8333,20.1667 47.5,21.5C 46.391,21.5569 45.391,21.8902 44.5,22.5C 42.6203,22.2291 41.287,22.8958 40.5,24.5C 31.3638,29.6317 25.6971,37.2984 23.5,47.5C 22.3871,48.9464 22.2204,50.6131 23,52.5C 27.0149,53.6795 28.8482,56.3462 28.5,60.5C 27.5,60.5 26.5,60.5 25.5,60.5C 24.3319,66.4929 26.6653,70.3263 32.5,72C 31.8333,72.3333 31.1667,72.6667 30.5,73C 31.8246,75.4829 31.1579,77.9829 28.5,80.5C 26.7281,78.38 24.7281,76.7133 22.5,75.5C 17.5986,66.027 16.2653,56.027 18.5,45.5C 18.8333,44.1667 19.1667,42.8333 19.5,41.5C 21.0353,37.9473 23.0353,34.614 25.5,31.5C 26.1667,30.1667 27.1667,29.1667 28.5,28.5C 33.0033,26.6767 36.6699,23.6767 39.5,19.5C 43.4812,18.8349 47.4812,18.1682 51.5,17.5C 54.6487,17.7275 55.6487,19.0609 54.5,21.5 Z"/></g>
<g><path style="opacity:1" fill="#f8e550" d="M 45.5,44.5 C 44.7515,46.3325 43.7515,47.9991 42.5,49.5C 41.8826,49.6107 41.3826,49.944 41,50.5C 40.6667,53.1667 40.3333,55.8333 40,58.5C 39.2588,57.3595 38.4255,57.3595 37.5,58.5C 36.5258,56.2573 36.1924,53.924 36.5,51.5C 37.1302,49.2504 38.1302,47.2504 39.5,45.5C 41.1486,44.286 42.8152,42.9527 44.5,41.5C 45.3857,42.325 45.719,43.325 45.5,44.5 Z"/></g>
<g><path style="opacity:1" fill="#eedb7a" d="M 55.5,50.5 C 55.5,51.5 55.5,52.5 55.5,53.5C 54.5,53.5 53.5,53.5 52.5,53.5C 53.6626,57.4982 55.6626,60.9982 58.5,64C 59.825,63.8516 60.9916,64.0183 62,64.5C 62.664,60.9067 63.8307,60.9067 65.5,64.5C 63.3826,66.6545 60.716,67.6545 57.5,67.5C 48.8694,66.1963 45.2028,61.1963 46.5,52.5C 46.3284,51.5084 46.6618,50.8417 47.5,50.5C 47.3691,51.3764 47.7025,52.0431 48.5,52.5C 49.8333,51.5 51.1667,50.5 52.5,49.5C 53.4168,50.1272 54.4168,50.4606 55.5,50.5 Z"/></g>
<g><path style="opacity:1" fill="#eecc63" d="M 66.5,47.5 C 72.0099,53.4617 71.6765,59.1283 65.5,64.5C 63.8307,60.9067 62.664,60.9067 62,64.5C 60.9916,64.0183 59.825,63.8516 58.5,64C 55.6626,60.9982 53.6626,57.4982 52.5,53.5C 53.5,53.5 54.5,53.5 55.5,53.5C 55.5,52.5 55.5,51.5 55.5,50.5C 57.0389,51.7671 58.7056,52.7671 60.5,53.5C 61.5,53.5 62.5,53.5 63.5,53.5C 63.238,54.9778 63.5713,56.3112 64.5,57.5C 65.5975,54.2473 66.2642,50.9139 66.5,47.5 Z"/></g>
<g><path style="opacity:1" fill="#6f2c01" d="M 60.5,53.5 C 61.1667,57.5 59.5,59.1667 55.5,58.5C 54.8333,54.5 56.5,52.8333 60.5,53.5 Z"/></g>
<g><path style="opacity:1" fill="#13110f" d="M 113.5,55.5 C 113.5,69.8333 113.5,84.1667 113.5,98.5C 107.925,98.1005 102.425,97.4339 97,96.5C 96,97.5 95,98.5 94,99.5C 93.1822,94.2063 92.6822,94.2063 92.5,99.5C 90.4727,99.3379 88.4727,99.5045 86.5,100C 87.6956,100.654 87.6956,101.154 86.5,101.5C 83.9479,97.7084 82.6146,98.3751 82.5,103.5C 81.1266,103.657 79.7932,103.49 78.5,103C 79.1905,101.933 79.6905,100.766 80,99.5C 80.5556,101.595 81.0556,101.762 81.5,100C 80.381,98.124 78.7144,97.2907 76.5,97.5C 77.165,100.888 76.165,101.888 73.5,100.5C 72.2588,101.037 71.0921,101.704 70,102.5C 65.5653,100.219 61.0653,100.219 56.5,102.5C 51.291,101.081 45.9577,99.9141 40.5,99C 37.6327,96.7341 34.6327,94.9007 31.5,93.5C 33.5,93.8333 35.5,94.1667 37.5,94.5C 37.5,93.5 37.5,92.5 37.5,91.5C 40.7036,92.9009 44.0369,93.9009 47.5,94.5C 50.886,95.9704 54.5527,96.6371 58.5,96.5C 62.1411,96.6852 65.4744,96.0186 68.5,94.5C 72.7709,93.7307 76.7709,92.2307 80.5,90C 81.7101,88.9609 82.7101,87.7942 83.5,86.5C 87.0988,84.7371 89.9322,82.0705 92,78.5C 94.7401,74.3533 96.9067,70.02 98.5,65.5C 98.3433,66.8734 98.51,68.2068 99,69.5C 100.353,68.3147 101.52,66.9814 102.5,65.5C 103.784,66.6297 104.617,67.963 105,69.5C 106.722,69.3893 106.888,68.8893 105.5,68C 106.448,67.5172 107.448,67.3505 108.5,67.5C 108.67,66.1779 108.337,65.0113 107.5,64C 109.062,62.1133 110.729,61.2799 112.5,61.5C 111.559,59.2279 110.226,57.2279 108.5,55.5C 109.718,55.891 110.552,55.2244 111,53.5C 111.417,54.756 112.25,55.4226 113.5,55.5 Z"/></g>
<g><path style="opacity:1" fill="#111107" d="M 46.5,52.5 C 45.2028,61.1963 48.8694,66.1963 57.5,67.5C 56.9032,68.1386 56.0698,68.472 55,68.5C 51.7151,67.7935 48.5484,66.7935 45.5,65.5C 44.5987,64.7095 43.9321,63.7095 43.5,62.5C 43.6044,58.7934 44.6044,55.46 46.5,52.5 Z"/></g>
<g><path style="opacity:1" fill="#0f110d" d="M -0.5,-0.5 C 0.5,-0.5 1.5,-0.5 2.5,-0.5C 2.16695,22.5097 2.50028,45.5097 3.5,68.5C 4.33725,66.1558 5.67058,64.1558 7.5,62.5C 7.83333,60.6667 8.16667,58.8333 8.5,57C 6.55816,47.5495 6.22483,38.0495 7.5,28.5C 8.30806,28.8076 8.97473,29.3076 9.5,30C 8.28882,30.8928 8.28882,31.7261 9.5,32.5C 11.4259,33.0606 13.4259,33.2273 15.5,33C 13.9474,34.0968 12.614,35.4301 11.5,37C 12,37.5 12.5,38 13,38.5C 15.5785,36.401 17.0785,34.0677 17.5,31.5C 17.8333,33.3333 18.1667,35.1667 18.5,37C 18.0027,40.2413 17.336,43.4079 16.5,46.5C 15.4625,56.97 16.9625,66.97 21,76.5C 21.3826,75.944 21.8826,75.6107 22.5,75.5C 26.1462,82.1449 31.1462,87.4782 37.5,91.5C 37.5,92.5 37.5,93.5 37.5,94.5C 35.5,94.1667 33.5,93.8333 31.5,93.5C 27.437,89.8011 22.7704,87.1344 17.5,85.5C 16.646,86.5217 15.646,87.3551 14.5,88C 16.0526,89.0968 17.386,90.4301 18.5,92C 16.0937,92.7789 14.427,91.9456 13.5,89.5C 10.8674,90.7822 10.8674,92.1156 13.5,93.5C 13.2907,94.086 12.9574,94.586 12.5,95C 14.4242,95.1792 16.0909,95.3459 17.5,95.5C 15.4944,98.0048 13.3277,100.338 11,102.5C 7.4555,100.999 6.9555,101.499 9.5,104C 8.33333,104.5 7.5,105.333 7,106.5C 6.66667,104.833 6.33333,103.167 6,101.5C 4.78786,104.834 5.6212,107.334 8.5,109C 17.1917,109.637 25.5251,110.137 33.5,110.5C 60.1622,109.806 86.8289,109.139 113.5,108.5C 113.5,109.5 113.5,110.5 113.5,111.5C 75.5,111.5 37.5,111.5 -0.5,111.5C -0.5,74.1667 -0.5,36.8333 -0.5,-0.5 Z"/></g>
<g><path style="opacity:1" fill="#fcea70" d="M 78.5,59.5 C 78.233,61.9653 77.5664,64.2986 76.5,66.5C 75.325,66.719 74.325,66.3857 73.5,65.5C 74.7853,62.9795 75.4519,60.3128 75.5,57.5C 77.5983,56.0857 78.5983,56.7524 78.5,59.5 Z"/></g>
<g><path style="opacity:1" fill="#351808" d="M 18.5,45.5 C 16.2653,56.027 17.5986,66.027 22.5,75.5C 21.8826,75.6107 21.3826,75.944 21,76.5C 16.9625,66.97 15.4625,56.97 16.5,46.5C 17.1667,46.1667 17.8333,45.8333 18.5,45.5 Z"/></g>
<g><path style="opacity:1" fill="#fbd138" d="M 29.5,44.5 C 29.1924,46.924 29.5258,49.2573 30.5,51.5C 31.1757,50.3984 31.8423,49.3984 32.5,48.5C 32.5,50.1667 32.5,51.8333 32.5,53.5C 34.1993,53.4729 35.5326,52.8062 36.5,51.5C 36.1924,53.924 36.5258,56.2573 37.5,58.5C 38.4255,57.3595 39.2588,57.3595 40,58.5C 40.3333,55.8333 40.6667,53.1667 41,50.5C 41.3826,49.944 41.8826,49.6107 42.5,49.5C 40.9531,54.0882 41.2864,58.4215 43.5,62.5C 43.9321,63.7095 44.5987,64.7095 45.5,65.5C 49.1986,70.509 54.1986,72.509 60.5,71.5C 61.8775,72.2344 63.3775,72.9011 65,73.5C 65.2387,74.788 64.7387,75.788 63.5,76.5C 61.1861,77.1787 60.8528,78.512 62.5,80.5C 64.0948,81.4339 65.7615,81.4339 67.5,80.5C 67.5449,83.0772 66.5449,85.0772 64.5,86.5C 62.2729,87.4006 61.2729,89.0672 61.5,91.5C 63.5648,91.4828 65.5648,91.1495 67.5,90.5C 64.6572,92.4006 61.3238,93.5672 57.5,94C 58.4158,94.2784 59.0825,94.7784 59.5,95.5C 55.5483,94.7279 51.5483,94.3946 47.5,94.5C 44.0369,93.9009 40.7036,92.9009 37.5,91.5C 31.1462,87.4782 26.1462,82.1449 22.5,75.5C 24.7281,76.7133 26.7281,78.38 28.5,80.5C 31.1579,77.9829 31.8246,75.4829 30.5,73C 31.1667,72.6667 31.8333,72.3333 32.5,72C 26.6653,70.3263 24.3319,66.4929 25.5,60.5C 26.5,60.5 27.5,60.5 28.5,60.5C 28.8482,56.3462 27.0149,53.6795 23,52.5C 22.2204,50.6131 22.3871,48.9464 23.5,47.5C 23.5,48.8333 23.5,50.1667 23.5,51.5C 24.675,51.719 25.675,51.3857 26.5,50.5C 27.5195,48.396 28.5195,46.396 29.5,44.5 Z"/></g>
<g><path style="opacity:1" fill="#e4cb6e" d="M 74.5,53.5 C 75.4345,54.5676 75.7678,55.901 75.5,57.5C 75.4519,60.3128 74.7853,62.9795 73.5,65.5C 74.325,66.3857 75.325,66.719 76.5,66.5C 73.8592,71.9919 69.5259,75.3252 63.5,76.5C 64.7387,75.788 65.2387,74.788 65,73.5C 63.3775,72.9011 61.8775,72.2344 60.5,71.5C 70.0256,69.3051 74.6923,63.3051 74.5,53.5 Z"/></g>
<g><path style="opacity:1" fill="#eeda7e" d="M 88.5,62.5 C 84.8426,74.824 76.8426,82.824 64.5,86.5C 66.5449,85.0772 67.5449,83.0772 67.5,80.5C 75.2628,76.6277 80.5962,70.6277 83.5,62.5C 84.4584,62.0472 85.2917,61.3805 86,60.5C 86.4169,61.756 87.2502,62.4226 88.5,62.5 Z"/></g>
<g><path style="opacity:1" fill="#231304" d="M 83.5,62.5 C 80.5962,70.6277 75.2628,76.6277 67.5,80.5C 65.7615,81.4339 64.0948,81.4339 62.5,80.5C 60.8528,78.512 61.1861,77.1787 63.5,76.5C 69.5259,75.3252 73.8592,71.9919 76.5,66.5C 77.5664,64.2986 78.233,61.9653 78.5,59.5C 79.8195,58.0582 81.4862,57.3915 83.5,57.5C 83.5,59.1667 83.5,60.8333 83.5,62.5 Z"/></g>
<g><path style="opacity:1" fill="#ecc162" d="M 97.5,46.5 C 98.4881,51.6405 98.8214,56.9738 98.5,62.5C 98.5,63.5 98.5,64.5 98.5,65.5C 96.9067,70.02 94.7401,74.3533 92,78.5C 89.9322,82.0705 87.0988,84.7371 83.5,86.5C 83.7148,84.8212 83.0481,83.8212 81.5,83.5C 85.6276,79.186 88.7942,74.186 91,68.5C 92.1488,65.6074 92.6488,62.6074 92.5,59.5C 94.9115,59.1367 96.4115,60.1367 97,62.5C 97.4994,57.1771 97.666,51.8437 97.5,46.5 Z"/></g>
<g><path style="opacity:1" fill="#201407" d="M 92.5,59.5 C 92.6488,62.6074 92.1488,65.6074 91,68.5C 88.7942,74.186 85.6276,79.186 81.5,83.5C 76.8088,85.8762 72.1421,88.2096 67.5,90.5C 65.5648,91.1495 63.5648,91.4828 61.5,91.5C 61.2729,89.0672 62.2729,87.4006 64.5,86.5C 76.8426,82.824 84.8426,74.824 88.5,62.5C 88.6941,60.0882 90.0274,59.0882 92.5,59.5 Z"/></g>
<g><path style="opacity:1" fill="#131411" d="M 31.5,93.5 C 34.6327,94.9007 37.6327,96.7341 40.5,99C 45.9577,99.9141 51.291,101.081 56.5,102.5C 61.0653,100.219 65.5653,100.219 70,102.5C 71.0921,101.704 72.2588,101.037 73.5,100.5C 76.165,101.888 77.165,100.888 76.5,97.5C 78.7144,97.2907 80.381,98.124 81.5,100C 81.0556,101.762 80.5556,101.595 80,99.5C 79.6905,100.766 79.1905,101.933 78.5,103C 79.7932,103.49 81.1266,103.657 82.5,103.5C 82.6146,98.3751 83.9479,97.7084 86.5,101.5C 87.6956,101.154 87.6956,100.654 86.5,100C 88.4727,99.5045 90.4727,99.3379 92.5,99.5C 92.6822,94.2063 93.1822,94.2063 94,99.5C 95,98.5 96,97.5 97,96.5C 102.425,97.4339 107.925,98.1005 113.5,98.5C 113.5,101.833 113.5,105.167 113.5,108.5C 86.8289,109.139 60.1622,109.806 33.5,110.5C 25.5251,110.137 17.1917,109.637 8.5,109C 5.6212,107.334 4.78786,104.834 6,101.5C 6.33333,103.167 6.66667,104.833 7,106.5C 7.5,105.333 8.33333,104.5 9.5,104C 6.9555,101.499 7.4555,100.999 11,102.5C 13.3277,100.338 15.4944,98.0048 17.5,95.5C 16.0909,95.3459 14.4242,95.1792 12.5,95C 12.9574,94.586 13.2907,94.086 13.5,93.5C 10.8674,92.1156 10.8674,90.7822 13.5,89.5C 14.427,91.9456 16.0937,92.7789 18.5,92C 17.386,90.4301 16.0526,89.0968 14.5,88C 15.646,87.3551 16.646,86.5217 17.5,85.5C 22.7704,87.1344 27.437,89.8011 31.5,93.5 Z"/></g>
<g><path style="opacity:1" fill="#f7e05d" d="M 81.5,83.5 C 83.0481,83.8212 83.7148,84.8212 83.5,86.5C 82.7101,87.7942 81.7101,88.9609 80.5,90C 76.7709,92.2307 72.7709,93.7307 68.5,94.5C 65.5176,94.9629 62.5176,95.2962 59.5,95.5C 59.0825,94.7784 58.4158,94.2784 57.5,94C 61.3238,93.5672 64.6572,92.4006 67.5,90.5C 72.1421,88.2096 76.8088,85.8762 81.5,83.5 Z"/></g>
<g><path style="opacity:1" fill="#e8c45f" d="M 47.5,94.5 C 51.5483,94.3946 55.5483,94.7279 59.5,95.5C 62.5176,95.2962 65.5176,94.9629 68.5,94.5C 65.4744,96.0186 62.1411,96.6852 58.5,96.5C 54.5527,96.6371 50.886,95.9704 47.5,94.5 Z"/></g>
</svg>
